PathFileType  4	(X/Y/Z) D:\Research_projects\MuscleProsody\BulkSports2Dtrack\RetrackedSports2D\p1_sample60_cam3\p1_sample60_cam3_Sports2D\pose-3d
DataRate	CameraRate	NumFrames	NumMarkers	Units	OrigDataRate	OrigDataStartFrame	OrigNumFrames
60.0	60.0	17	22	m	60.0	682	780
Frame#	Time	Hip			RHip			RKnee			RAnkle			RBigToe			RSmallToe			RHeel			LHip			LKnee			LAnkle			LBigToe			LSmallToe			LHeel			Neck			Head			Nose			RShoulder			RElbow			RWrist			LShoulder			LElbow			LWrist			
		X1	Y1	Z1	X2	Y2	Z2	X3	Y3	Z3	X4	Y4	Z4	X5	Y5	Z5	X6	Y6	Z6	X7	Y7	Z7	X8	Y8	Z8	X9	Y9	Z9	X10	Y10	Z10	X11	Y11	Z11	X12	Y12	Z12	X13	Y13	Z13	X14	Y14	Z14	X15	Y15	Z15	X16	Y16	Z16	X17	Y17	Z17	X18	Y18	Z18	X19	Y19	Z19	X20	Y20	Z20	X21	Y21	Z21	X22	Y22	Z22	

683	11.3666667	0.5150201	0.8323783	0.0301000	0.4301102	0.8028574	0.0301000	0.5811118	0.4484327	0.1290000	0.7676901	0.1641132	0.0230000	0.6982323	-0.0076045	0.2179000	0.6769298	0.0271425	0.1804000	0.8335969	0.1310739	-0.0119000	0.5970007	0.8541474	0.0301000	0.7373403	0.4900170	0.1290000	0.9098647	0.1511111	0.0230000	0.8553779	-0.0125612	0.2179000	0.9237936	-0.0041040	0.1804000	0.9701918	0.1265651	-0.0119000	0.2613171	1.3991135	0.0008000	0.0312718	1.6120325	0.0655000	0.0706371	1.4263747	0.1076000	0.2048125	1.2538294	-0.0127500	0.1728887	1.0177919	0.0702000	-0.0144430	0.8918652	0.1076000	0.4747802	1.3840685	-0.0127500	0.6692826	1.1403308	0.0702000	0.5508978	0.8744872	0.1076000
684	11.3833333	0.5142082	0.8323472	0.0301000	0.4295313	0.8030697	0.0301000	0.5803387	0.4485479	0.1290000	0.7677075	0.1632195	0.0230000	0.6978254	-0.0080466	0.2179000	0.6769807	0.0270576	0.1804000	0.8344626	0.1304473	-0.0119000	0.5965827	0.8543296	0.0301000	0.7365198	0.4897757	0.1290000	0.9097433	0.1507810	0.0230000	0.8546411	-0.0135542	0.2179000	0.9229113	-0.0048613	0.1804000	0.9706905	0.1263287	-0.0119000	0.2610743	1.3997545	0.0008000	0.0321154	1.6122386	0.0655000	0.0711177	1.4271551	0.1076000	0.2052864	1.2538672	-0.0127500	0.1792198	1.0168042	0.0702000	0.0071087	0.8910866	0.1076000	0.4755006	1.3836392	-0.0127500	0.6682049	1.1382606	0.0702000	0.5473818	0.8732427	0.1076000
685	11.4000000	0.5132633	0.8322575	0.0301000	0.4289634	0.8032662	0.0301000	0.5795728	0.4487075	0.1290000	0.7677582	0.1622328	0.0230000	0.6973944	-0.0085357	0.2179000	0.6770569	0.0268706	0.1804000	0.8352348	0.1296946	-0.0119000	0.5960065	0.8545580	0.0301000	0.7356120	0.4896105	0.1290000	0.9096185	0.1503264	0.0230000	0.8538649	-0.0145340	0.2179000	0.9219792	-0.0055403	0.1804000	0.9712250	0.1261018	-0.0119000	0.2607291	1.4003594	0.0008000	0.0329983	1.6124373	0.0655000	0.0714326	1.4279688	0.1076000	0.2057025	1.2537601	-0.0127500	0.1860668	1.0156014	0.0702000	0.0302152	0.8891332	0.1076000	0.4761979	1.3832437	-0.0127500	0.6671895	1.1362494	0.0702000	0.5442318	0.8717926	0.1076000
686	11.4166667	0.5121882	0.8321128	0.0301000	0.4284424	0.8034562	0.0301000	0.5788413	0.4489297	0.1290000	0.7678595	0.1611796	0.0230000	0.6969526	-0.0090712	0.2179000	0.6771747	0.0265587	0.1804000	0.8358743	0.1288158	-0.0119000	0.5952509	0.8548279	0.0301000	0.7346406	0.4895295	0.1290000	0.9095113	0.1497387	0.0230000	0.8530723	-0.0154515	0.2179000	0.9210326	-0.0061016	0.1804000	0.9717820	0.1259022	-0.0119000	0.2602826	1.4008901	0.0008000	0.0338935	1.6126254	0.0655000	0.0715479	1.4287863	0.1076000	0.2060517	1.2535368	-0.0127500	0.1933786	1.0141738	0.0702000	0.0543172	0.8859494	0.1076000	0.4768010	1.3829044	-0.0127500	0.6662157	1.1343425	0.0702000	0.5415859	0.8700926	0.1076000
687	11.4333333	0.5109962	0.8319226	0.0301000	0.4279994	0.8036420	0.0301000	0.5781807	0.4492230	0.1290000	0.7680258	0.1600931	0.0230000	0.6965303	-0.0096521	0.2179000	0.6773535	0.0260962	0.1804000	0.8363470	0.1278163	-0.0119000	0.5942998	0.8551307	0.0301000	0.7336379	0.4895336	0.1290000	0.9094506	0.1490304	0.0230000	0.8522957	-0.0162525	0.2179000	0.9201159	-0.0065075	0.1804000	0.9723616	0.1257362	-0.0119000	0.2597486	1.4013170	0.0008000	0.0347656	1.6128007	0.0655000	0.0714419	1.4295780	0.1076000	0.2063218	1.2532410	-0.0127500	0.2010688	1.0125162	0.0702000	0.0788434	0.8815215	0.1076000	0.4772528	1.3826454	-0.0127500	0.6652583	1.1325575	0.0702000	0.5395809	0.8680986	0.1076000
688	11.4500000	0.5097118	0.8316997	0.0301000	0.4276576	0.8038141	0.0301000	0.5776292	0.4495735	0.1290000	0.7682611	0.1590090	0.0230000	0.6961664	-0.0102722	0.2179000	0.6776160	0.0254643	0.1804000	0.8366366	0.1267187	-0.0119000	0.5931428	0.8554461	0.0301000	0.7326433	0.4896095	0.1290000	0.9094572	0.1482305	0.0230000	0.8515726	-0.0168920	0.2179000	0.9192653	-0.0067310	0.1804000	0.9729752	0.1256144	-0.0119000	0.2591534	1.4016153	0.0008000	0.0355734	1.6129651	0.0655000	0.0711159	1.4303066	0.1076000	0.2064939	1.2529161	-0.0127500	0.2090088	1.0106163	0.0702000	0.1032271	0.8758580	0.1076000	0.4775099	1.3824825	-0.0127500	0.6642913	1.1308843	0.0702000	0.5383484	0.8657645	0.1076000
689	11.4666667	0.5083600	0.8314646	0.0301000	0.4274303	0.8039635	0.0301000	0.5772218	0.4499446	0.1290000	0.7685658	0.1579501	0.0230000	0.6958987	-0.0109157	0.2179000	0.6779849	0.0246606	0.1804000	0.8367675	0.1255592	-0.0119000	0.5917723	0.8557467	0.0301000	0.7317050	0.4897255	0.1290000	0.9095362	0.1473688	0.0230000	0.8509365	-0.0173458	0.2179000	0.9184942	-0.0067667	0.1804000	0.9736338	0.1255560	-0.0119000	0.2585375	1.4017593	0.0008000	0.0362794	1.6131222	0.0655000	0.0705991	1.4309255	0.1076000	0.2065451	1.2525937	-0.0127500	0.2170290	1.0084505	0.0702000	0.1269356	0.8689756	0.1076000	0.4775427	1.3824201	-0.0127500	0.6632890	1.1292925	0.0702000	0.5380176	0.8630448	0.1076000
690	11.4833333	0.5069537	0.8312439	0.0301000	0.4273102	0.8040925	0.0301000	0.5769929	0.4502828	0.1290000	0.7689439	0.1569207	0.0230000	0.6957636	-0.0115559	0.2179000	0.6784759	0.0236996	0.1804000	0.8368049	0.1243749	-0.0119000	0.5901819	0.8560138	0.0301000	0.7308755	0.4898379	0.1290000	0.9096822	0.1464693	0.0230000	0.8504057	-0.0176057	0.2179000	0.9177894	-0.0066322	0.1804000	0.9743399	0.1255638	-0.0119000	0.2579506	1.4017259	0.0008000	0.0368564	1.6132731	0.0655000	0.0699385	1.4313935	0.1076000	0.2064573	1.2522951	-0.0127500	0.2249380	1.0060015	0.0702000	0.1495322	0.8608993	0.1076000	0.4773406	1.3824520	-0.0127500	0.6622242	1.1277375	0.0702000	0.5387187	0.8598971	0.1076000
691	11.5000000	0.5054970	0.8310630	0.0301000	0.4272678	0.8042134	0.0301000	0.5769797	0.4505308	0.1290000	0.7694040	0.1559177	0.0230000	0.6957902	-0.0121594	0.2179000	0.6790931	0.0226102	0.1804000	0.8368313	0.1231952	-0.0119000	0.5883748	0.8562482	0.0301000	0.7302013	0.4899014	0.1290000	0.9098862	0.1455506	0.0230000	0.8499789	-0.0176683	0.2179000	0.9171201	-0.0063589	0.1804000	0.9750846	0.1256121	-0.0119000	0.2574356	1.4015046	0.0008000	0.0372926	1.6134219	0.0655000	0.0691855	1.4316918	0.1076000	0.2062253	1.2520309	-0.0127500	0.2325389	1.0032806	0.0702000	0.1707138	0.8516877	0.1076000	0.4769132	1.3825653	-0.0127500	0.6610653	1.1261651	0.0702000	0.5405774	0.8562849	0.1076000
692	11.5166667	0.5039948	0.8309414	0.0301000	0.4272662	0.8043399	0.0301000	0.5772155	0.4506443	0.1290000	0.7699564	0.1549429	0.0230000	0.6959899	-0.0126957	0.2179000	0.6798315	0.0214363	0.1804000	0.8369203	0.1220425	-0.0119000	0.5863741	0.8564642	0.0301000	0.7297199	0.4898751	0.1290000	0.9101383	0.1446262	0.0230000	0.8496437	-0.0175326	0.2179000	0.9164547	-0.0059777	0.1804000	0.9758405	0.1256675	-0.0119000	0.2570133	1.4011039	0.0008000	0.0375980	1.6135909	0.0655000	0.0683864	1.4318284	0.1076000	0.2058588	1.2517935	-0.0127500	0.2396348	1.0003339	0.0702000	0.1902942	0.8414649	0.1076000	0.4762838	1.3827436	-0.0127500	0.6597726	1.1245151	0.0702000	0.5437017	0.8521877	0.1076000
693	11.5333333	0.5024617	0.8308911	0.0301000	0.4272723	0.8044817	0.0301000	0.5777187	0.4506021	0.1290000	0.7706055	0.1540089	0.0230000	0.6963569	-0.0131404	0.2179000	0.6806822	0.0202355	0.1804000	0.8371193	0.1209426	-0.0119000	0.5842247	0.8566781	0.0301000	0.7294599	0.4897243	0.1290000	0.9104279	0.1437023	0.0230000	0.8493868	-0.0172032	0.2179000	0.9157752	-0.0055119	0.1804000	0.9765567	0.1257103	-0.0119000	0.2566840	1.4005505	0.0008000	0.0378096	1.6138276	0.0655000	0.0675799	1.4318307	0.1076000	0.2053807	1.2515628	-0.0127500	0.2460530	0.9972270	0.0702000	0.2081733	0.8304206	0.1076000	0.4754837	1.3829675	-0.0127500	0.6582995	1.1227288	0.0702000	0.5481680	0.8476102	0.1076000
694	11.5500000	0.5009300	0.8309134	0.0301000	0.4272534	0.8046456	0.0301000	0.5784832	0.4504079	0.1290000	0.7713415	0.1531400	0.0230000	0.6968737	-0.0134711	0.2179000	0.6816293	0.0190718	0.1804000	0.8374482	0.1199329	-0.0119000	0.5819936	0.8569098	0.0301000	0.7294357	0.4894262	0.1290000	0.9107458	0.1427815	0.0230000	0.8491976	-0.0166964	0.2179000	0.9150799	-0.0049840	0.1804000	0.9771818	0.1257314	-0.0119000	0.2564390	1.3998820	0.0008000	0.0379807	1.6141880	0.0655000	0.0667947	1.4317343	0.1076000	0.2048181	1.2513218	-0.0127500	0.2516803	0.9940282	0.0702000	0.2243223	0.8187746	0.1076000	0.4745553	1.3832140	-0.0127500	0.6566008	1.1207576	0.0702000	0.5540108	0.8425859	0.1076000
695	11.5666667	0.4994490	0.8309992	0.0301000	0.4271774	0.8048364	0.0301000	0.5794759	0.4500901	0.1290000	0.7721386	0.1523710	0.0230000	0.6975099	-0.0136702	0.2179000	0.6826420	0.0180071	0.1804000	0.8379010	0.1190614	-0.0119000	0.5797660	0.8571826	0.0301000	0.7296455	0.4889733	0.1290000	0.9110865	0.1418700	0.0230000	0.8490645	-0.0160429	0.2179000	0.9143790	-0.0044234	0.1804000	0.9776915	0.1257295	-0.0119000	0.2562634	1.3991411	0.0008000	0.0381614	1.6147125	0.0655000	0.0660477	1.4315747	0.1076000	0.2041944	1.2510646	-0.0127500	0.2564666	0.9908043	0.0702000	0.2387670	0.8067558	0.1076000	0.4735517	1.3834582	-0.0127500	0.6546439	1.1185679	0.0702000	0.5612191	0.8371798	0.1076000
696	11.5833333	0.4980711	0.8311330	0.0301000	0.4270183	0.8050516	0.0301000	0.5806388	0.4496933	0.1290000	0.7729597	0.1517376	0.0230000	0.6982216	-0.0137306	0.2179000	0.6836801	0.0170916	0.1804000	0.8384417	0.1183775	-0.0119000	0.5776295	0.8575053	0.0301000	0.7300728	0.4883632	0.1290000	0.9114443	0.1409835	0.0230000	0.8489696	-0.0152788	0.2179000	0.9136860	-0.0038569	0.1804000	0.9780813	0.1257223	-0.0119000	0.2561297	1.3983726	0.0008000	0.0383913	1.6154181	0.0655000	0.0653453	1.4313838	0.1076000	0.2035287	1.2507905	-0.0127500	0.2604009	0.9876219	0.0702000	0.2515640	0.7946118	0.1076000	0.4725220	1.3836788	-0.0127500	0.6524130	1.1161433	0.0702000	0.5697373	0.8314952	0.1076000
697	11.6000000	0.4968356	0.8312969	0.0301000	0.4267583	0.8052794	0.0301000	0.5818971	0.4492640	0.1290000	0.7737594	0.1512625	0.0230000	0.6989588	-0.0136534	0.2179000	0.6847052	0.0163598	0.1804000	0.8390078	0.1179216	-0.0119000	0.5756570	0.8578555	0.0301000	0.7306844	0.4875899	0.1290000	0.9118065	0.1401463	0.0230000	0.8488919	-0.0144348	0.2179000	0.9130091	-0.0032943	0.1804000	0.9783418	0.1257494	-0.0119000	0.2559992	1.3976183	0.0008000	0.0387016	1.6163028	0.0655000	0.0646865	1.4311875	0.1076000	0.2028365	1.2505010	-0.0127500	0.2634962	0.9845479	0.0702000	0.2627843	0.7826074	0.1076000	0.4714995	1.3838584	-0.0127500	0.6499070	1.1134854	0.0702000	0.5794717	0.8256772	0.1076000
698	11.6166667	0.4957605	0.8314677	0.0301000	0.4263823	0.8055068	0.0301000	0.5831688	0.4488446	0.1290000	0.7744873	0.1509539	0.0230000	0.6996702	-0.0134387	0.2179000	0.6856782	0.0158340	0.1804000	0.8395293	0.1177229	-0.0119000	0.5739024	0.8581905	0.0301000	0.7314259	0.4866569	0.1290000	0.9121584	0.1393893	0.0230000	0.8488159	-0.0135416	0.2179000	0.9123484	-0.0027359	0.1804000	0.9784663	0.1258525	-0.0119000	0.2558359	1.3969077	0.0008000	0.0391103	1.6173469	0.0655000	0.0640648	1.4310037	0.1076000	0.2021247	1.2501967	-0.0127500	0.2657937	0.9816513	0.0702000	0.2725064	0.7710056	0.1076000	0.4705048	1.3839794	-0.0127500	0.6471404	1.1106132	0.0702000	0.5902994	0.8199083	0.1076000
699	11.6333333	0.4948493	0.8316103	0.0301000	0.4258805	0.8057235	0.0301000	0.5843739	0.4484765	0.1290000	0.7750971	0.1508118	0.0230000	0.7003079	-0.0130864	0.2179000	0.6865530	0.0155264	0.1804000	0.8399486	0.1177983	-0.0119000	0.5724042	0.8584634	0.0301000	0.7322250	0.4855878	0.1290000	0.9124914	0.1387467	0.0230000	0.8487327	-0.0126367	0.2179000	0.9116983	-0.0021871	0.1804000	0.9784725	0.1260582	-0.0119000	0.2556146	1.3962544	0.0008000	0.0396139	1.6185161	0.0655000	0.0634716	1.4308445	0.1076000	0.2013954	1.2498720	-0.0127500	0.2673678	0.9789980	0.0702000	0.2808075	0.7600560	0.1076000	0.4695518	1.3840240	-0.0127500	0.6441525	1.1075729	0.0702000	0.6020641	0.8143998	0.1076000
